<svg fill="none" height="20" viewBox="0 0 20 20" width="20" xmlns="http://www.w3.org/2000/svg"><g fill="#212121"><path d="m2 3.5c0-.27614.22386-.5.5-.5h15c.2761 0 .5.22386.5.5s-.2239.5-.5.5h-15c-.27614 0-.5-.22386-.5-.5z"/><path d="m2 9.5c0-.27614.22386-.5.5-.5h15c.2761 0 .5.22386.5.5s-.2239.5-.5.5h-15c-.27614 0-.5-.22386-.5-.5z"/><path d="m2.5 6c-.27614 0-.5.22386-.5.5s.22386.5.5.5h15c.2761 0 .5-.22386.5-.5s-.2239-.5-.5-.5z"/><path d="m2 12.5c0-.2761.22386-.5.5-.5h15c.2761 0 .5.2239.5.5s-.2239.5-.5.5h-15c-.27614 0-.5-.2239-.5-.5z"/><path d="m2.5 15c-.27614 0-.5.2239-.5.5s.22386.5.5.5h15c.2761 0 .5-.2239.5-.5s-.2239-.5-.5-.5z"/></g></svg>